<?xml version="1.0" encoding="UTF-8"?>
<svg id="Layer_1" data-name="Layer 1" xmlns="http://www.w3.org/2000/svg" viewBox="0 0 753.29 419.62">
  <defs>
    <style>
      .cls-1 {
        fill: #fff;
      }
    </style>
  </defs>
  <g id="CIT">
    <path class="cls-1" d="M0,163.8C0,67.95,73.35,0,173.25,0c58.05,0,104.85,21.15,135.45,59.4l-56.7,51.3c-19.8-23.85-44.1-36.9-74.25-36.9-51.75,0-87.75,36-87.75,90s36,90,87.75,90c30.15,0,54.45-13.05,74.25-36.9l56.7,51.3c-30.6,38.25-77.4,59.4-135.45,59.4C73.35,327.6,0,259.65,0,163.8Z"/>
    <path class="cls-1" d="M348.3,6.3h89.1v315h-89.1V6.3Z"/>
    <path class="cls-1" d="M567.89,76.95h-96.75V6.3h282.15v70.65h-96.3v244.35h-89.1V76.95Z"/>
  </g>
  <g id="CHRISTISTIANS_IN_TECH" data-name="CHRISTISTIANS IN TECH">
    <path class="cls-1" d="M.15,393.8c0-15.05,11.56-25.82,27.11-25.82,8.63,0,15.84,3.14,20.54,8.85l-7.42,6.85c-3.35-3.85-7.56-5.85-12.55-5.85-9.34,0-15.98,6.56-15.98,15.98s6.63,15.98,15.98,15.98c4.99,0,9.2-2,12.55-5.92l7.42,6.85c-4.71,5.78-11.91,8.92-20.61,8.92-15.48,0-27.03-10.77-27.03-25.82Z"/>
    <path class="cls-1" d="M101.37,368.83v49.93h-11.56v-20.47h-22.68v20.47h-11.56v-49.93h11.56v19.69h22.68v-19.69h11.56Z"/>
    <path class="cls-1" d="M145.02,418.77l-9.63-13.91h-10.63v13.91h-11.56v-49.93h21.61c13.34,0,21.68,6.92,21.68,18.12,0,7.49-3.78,12.98-10.27,15.76l11.2,16.05h-12.41ZM134.18,378.25h-9.42v17.41h9.42c7.06,0,10.63-3.28,10.63-8.7s-3.57-8.7-10.63-8.7Z"/>
    <path class="cls-1" d="M165.64,368.83h11.56v49.93h-11.56v-49.93Z"/>
    <path class="cls-1" d="M185.11,413.84l3.92-8.7c4.21,3.07,10.49,5.21,16.48,5.21,6.85,0,9.63-2.28,9.63-5.35,0-9.34-29.03-2.92-29.03-21.47,0-8.49,6.85-15.55,21.04-15.55,6.28,0,12.7,1.5,17.33,4.42l-3.57,8.77c-4.64-2.64-9.42-3.92-13.84-3.92-6.85,0-9.49,2.57-9.49,5.71,0,9.2,29.03,2.85,29.03,21.19,0,8.35-6.92,15.48-21.19,15.48-7.92,0-15.91-2.35-20.33-5.78Z"/>
    <path class="cls-1" d="M244.18,378.25h-15.98v-9.42h43.51v9.42h-15.98v40.52h-11.56v-40.52Z"/>
    <path class="cls-1" d="M277.92,368.83h11.56v49.93h-11.56v-49.93Z"/>
    <path class="cls-1" d="M334.2,408.07h-23.18l-4.42,10.7h-11.84l22.26-49.93h11.41l22.33,49.93h-12.13l-4.42-10.7ZM330.56,399.29l-7.92-19.12-7.92,19.12h15.84Z"/>
    <path class="cls-1" d="M401.75,368.83v49.93h-9.49l-24.89-30.32v30.32h-11.41v-49.93h9.56l24.82,30.32v-30.32h11.41Z"/>
    <path class="cls-1" d="M409.67,413.84l3.92-8.7c4.21,3.07,10.49,5.21,16.48,5.21,6.85,0,9.63-2.28,9.63-5.35,0-9.34-29.03-2.92-29.03-21.47,0-8.49,6.85-15.55,21.04-15.55,6.28,0,12.7,1.5,17.33,4.42l-3.57,8.77c-4.64-2.64-9.42-3.92-13.84-3.92-6.85,0-9.49,2.57-9.49,5.71,0,9.2,29.03,2.85,29.03,21.19,0,8.35-6.92,15.48-21.19,15.48-7.92,0-15.91-2.35-20.33-5.78Z"/>
    <path class="cls-1" d="M474.37,368.83h5.28v49.93h-5.28v-49.93Z"/>
    <path class="cls-1" d="M537.64,368.83v49.93h-4.35l-32.1-40.52v40.52h-5.28v-49.93h4.35l32.17,40.52v-40.52h5.21Z"/>
    <path class="cls-1" d="M573.6,378.25h-15.98v-9.42h43.51v9.42h-15.98v40.52h-11.56v-40.52Z"/>
    <path class="cls-1" d="M646,409.49v9.27h-38.66v-49.93h37.74v9.27h-26.25v10.84h23.18v8.99h-23.18v11.56h27.18Z"/>
    <path class="cls-1" d="M651.92,393.8c0-15.05,11.56-25.82,27.11-25.82,8.63,0,15.84,3.14,20.54,8.85l-7.42,6.85c-3.35-3.85-7.56-5.85-12.56-5.85-9.34,0-15.98,6.56-15.98,15.98s6.63,15.98,15.98,15.98c4.99,0,9.2-2,12.56-5.92l7.42,6.85c-4.71,5.78-11.91,8.92-20.61,8.92-15.48,0-27.03-10.77-27.03-25.82Z"/>
    <path class="cls-1" d="M753.15,368.83v49.93h-11.56v-20.47h-22.68v20.47h-11.56v-49.93h11.56v19.69h22.68v-19.69h11.56Z"/>
  </g>
</svg>