<?xml version="1.0" encoding="UTF-8"?>
<svg id="Layer_1" data-name="Layer 1" xmlns="http://www.w3.org/2000/svg" viewBox="0 0 753.29 327.6">
  <defs>
    <style>
      .cls-1 {
        fill: #fff;
      }
    </style>
  </defs>
  <path class="cls-1" d="M0,163.8C0,67.95,73.35,0,173.25,0c58.05,0,104.85,21.15,135.45,59.4l-56.7,51.3c-19.8-23.85-44.1-36.9-74.25-36.9-51.75,0-87.75,36-87.75,90s36,90,87.75,90c30.15,0,54.45-13.05,74.25-36.9l56.7,51.3c-30.6,38.25-77.4,59.4-135.45,59.4C73.35,327.6,0,259.65,0,163.8Z"/>
  <path class="cls-1" d="M348.3,6.3h89.1v315h-89.1V6.3Z"/>
  <path class="cls-1" d="M567.89,76.95h-96.75V6.3h282.15v70.65h-96.3v244.35h-89.1V76.95Z"/>
</svg>